# xmcd CD database file
#
# Track frame offsets:
#	150
#	14430
#	28443
#	46863
#	64990
#	82454
#	92534
#	109334
#
# Disc length: 1709 seconds
#
# Revision: 1
# Processed by: cddbd v1.5.2PL0 Copyright (c) Steve Scherf et al.
# Submitted via: CDex 2.07
#
DISCID=6e06ab08
DTITLE=Charlie Byrd and Woody Herman - The Byrd and The Herd
DYEAR=1959
DGENRE=Jazz
TTITLE0=Bamba Samba (Bossa Nova)
TTITLE1=Original #2
TTITLE2=Love Song Ballad
TTITLE3=Prelude A La Cha Cha
TTITLE4=Summer Sequence Part 1
TTITLE5=Summer Sequence Part 2
TTITLE6=Summer Sequence Part 3
TTITLE7=Summer Sequence Part 4
EXTD=YEAR: 1959
EXTT0=
EXTT1=
EXTT2=
EXTT3=
EXTT4=
EXTT5=
EXTT6=
EXTT7=
PLAYORDER=
